<?xml version="1.0" encoding="utf-8"?>
<!-- Generator: Adobe Illustrator 19.0.0, SVG Export Plug-In . SVG Version: 6.00 Build 0)  -->
<svg version="1.1" xmlns="http://www.w3.org/2000/svg" xmlns:xlink="http://www.w3.org/1999/xlink" x="0px" y="0px"
	 viewBox="0 0 300 150" style="enable-background:new 0 0 300 150;" xml:space="preserve">
<style type="text/css">
	.st0{fill:#ED1C24;}
	.st1{fill:#0000FF;}
	.st2{fill:#F7931E;}
	.st3{fill:#00FF00;}
</style>
<g id="Lager_1">
	<line id="XMLID_2_" x1="91" y1="53" x2="110" y2="53"/>
	<path id="XMLID_5_" d="M134.6,57.9"/>
	<path id="XMLID_1_" d="M134.3,68.6"/>
	<path id="XMLID_79_" d="M129,81v5.3c0,2.8,1.9,4.9,4.5,4.9s4.5-2.1,4.5-4.9V81H129z M137,86.3c0,2.2-1.5,3.9-3.5,3.9
		s-3.5-1.7-3.5-3.9V82h7V86.3z"/>
	<path id="XMLID_76_" class="st0" d="M129,81v5.3c0,2.8,1.9,4.9,4.5,4.9s4.5-2.1,4.5-4.9V81H129z M137,86.3c0,2.2-1.5,3.9-3.5,3.9
		s-3.5-1.7-3.5-3.9V82h7V86.3z"/>
	<path id="XMLID_73_" class="st1" d="M129,81v5.3c0,2.8,1.9,4.9,4.5,4.9s4.5-2.1,4.5-4.9V81H129z M137,86.3c0,2.2-1.5,3.9-3.5,3.9
		s-3.5-1.7-3.5-3.9V82h7V86.3z"/>
	<path id="XMLID_70_" class="st2" d="M129,81v5.3c0,2.8,1.9,4.9,4.5,4.9s4.5-2.1,4.5-4.9V81H129z M137,86.3c0,2.2-1.5,3.9-3.5,3.9
		s-3.5-1.7-3.5-3.9V82h7V86.3z"/>
	<path id="XMLID_67_" class="st3" d="M129,81v5.3c0,2.8,1.9,4.9,4.5,4.9s4.5-2.1,4.5-4.9V81H129z M137,86.3c0,2.2-1.5,3.9-3.5,3.9
		s-3.5-1.7-3.5-3.9V82h7V86.3z"/>
	<path id="XMLID_64_" d="M129,81v5.3c0,2.8,1.9,4.9,4.5,4.9s4.5-2.1,4.5-4.9V81H129z M137,86.3c0,2.2-1.5,3.9-3.5,3.9
		s-3.5-1.7-3.5-3.9V82h7V86.3z"/>
	<path id="XMLID_6_" class="st0" d="M139,80v6.2c0,3.3-2.4,5.9-5.5,5.9c-1.8,0-3.4-0.8-4.3-2.2l-0.7,0.7c1.2,1.5,3,2.5,5.1,2.5
		c3.7,0,6.5-3,6.5-6.9V79L139,80z"/>
	<path id="XMLID_7_" d="M141,78v8.2c0,4.5-3.2,7.9-7.5,7.9c-2.4,0-4.4-1-5.8-2.7l-0.7,0.7c1.5,1.9,3.8,3,6.5,3c4.9,0,8.5-4,8.5-8.9
		V77L141,78z"/>
	<polygon id="XMLID_9_" class="st0" points="135,85 134,85 134,84 133,84 133,85 132,85 132,86 133,86 133,87 134,87 134,86 135,86 
			"/>
</g>
<g id="Lager_2">
</g>
</svg>
