<?xml version="1.0" encoding="utf-8"?>
<!-- Generator: Adobe Illustrator 19.0.0, SVG Export Plug-In . SVG Version: 6.00 Build 0)  -->
<svg version="1.1" id="Lager_1" xmlns="http://www.w3.org/2000/svg" xmlns:xlink="http://www.w3.org/1999/xlink" x="0px" y="0px"
	 viewBox="0 0 15 18.1" style="enable-background:new 0 0 15 18.1;" xml:space="preserve">
<style type="text/css">
	.st0{fill:#ED1C24;}
	.st1{fill:#0000FF;}
	.st2{fill:#F7931E;}
	.st3{fill:#00FF00;}
</style>
<path id="XMLID_79_" d="M2,4v5.3c0,2.8,1.9,4.9,4.5,4.9S11,12,11,9.3V4H2z M10,9.3c0,2.2-1.5,3.9-3.5,3.9S3,11.5,3,9.3V5h7V9.3z"/>
<path id="XMLID_76_" class="st0" d="M2,4v5.3c0,2.8,1.9,4.9,4.5,4.9S11,12,11,9.3V4H2z M10,9.3c0,2.2-1.5,3.9-3.5,3.9S3,11.5,3,9.3
	V5h7V9.3z"/>
<path id="XMLID_73_" class="st1" d="M2,4v5.3c0,2.8,1.9,4.9,4.5,4.9S11,12,11,9.3V4H2z M10,9.3c0,2.2-1.5,3.9-3.5,3.9S3,11.5,3,9.3
	V5h7V9.3z"/>
<path id="XMLID_70_" class="st2" d="M2,4v5.3c0,2.8,1.9,4.9,4.5,4.9S11,12,11,9.3V4H2z M10,9.3c0,2.2-1.5,3.9-3.5,3.9S3,11.5,3,9.3
	V5h7V9.3z"/>
<path id="XMLID_67_" class="st3" d="M2,4v5.3c0,2.8,1.9,4.9,4.5,4.9S11,12,11,9.3V4H2z M10,9.3c0,2.2-1.5,3.9-3.5,3.9S3,11.5,3,9.3
	V5h7V9.3z"/>
<path id="XMLID_64_" d="M2,4v5.3c0,2.8,1.9,4.9,4.5,4.9S11,12,11,9.3V4H2z M10,9.3c0,2.2-1.5,3.9-3.5,3.9S3,11.5,3,9.3V5h7V9.3z"/>
<path id="XMLID_6_" class="st0" d="M12,3v6.2c0,3.3-2.4,5.9-5.5,5.9c-1.8,0-3.4-0.8-4.3-2.2l-0.7,0.7c1.2,1.5,3,2.5,5.1,2.5
	c3.7,0,6.5-3,6.5-6.9V2L12,3z"/>
<path id="XMLID_7_" d="M14,1v8.2c0,4.5-3.2,7.9-7.5,7.9c-2.4,0-4.4-1-5.8-2.7L0,15.1c1.5,1.9,3.8,3,6.5,3c4.9,0,8.5-4,8.5-8.9V0
	L14,1z"/>
<polygon id="XMLID_9_" class="st0" points="8,8 7,8 7,7 6,7 6,8 5,8 5,9 6,9 6,10 7,10 7,9 8,9 "/>
</svg>
